<?xml version="1.0" encoding="UTF-8"?>
<svg id="Layer_1" data-name="Layer 1" xmlns="http://www.w3.org/2000/svg" viewBox="0 0 774.76 331.25">
  <defs>
    <style>
      .cls-1 {
        fill: #fff;
      }

      .cls-2 {
        font-family: Krungthep, Krungthep;
        font-size: 42px;
        letter-spacing: .61em;
      }

      .cls-2, .cls-3 {
        fill: #231f20;
      }

      .cls-3 {
        font-family: DINCondensed-Bold, 'DIN Condensed';
        font-size: 212.1px;
        font-weight: 700;
        letter-spacing: -.06em;
      }

      .cls-4 {
        fill: none;
        stroke: #231f20;
        stroke-miterlimit: 10;
        stroke-width: 8px;
      }
    </style>
  </defs>
  <rect class="cls-4" x="4" y="56.62" width="766.76" height="226.25"/>
  <path class="cls-1" d="M659.96,309.84c-2.96,0-5.99-.13-9.01-.39-28.77-2.49-50.59-17.8-61.45-43.13-.48-1.11-.83-2.26-1.14-3.26-.21-.67-.52-1.67-.69-2.01-.18-.34-.88-1.22-1.35-1.81-.83-1.05-1.77-2.23-2.56-3.56-5.05-8.54-7.22-19.31-8.68-28.71-.93-5.99-1.63-12.32-2.14-19.24-3.64-1.98-7.16-4.6-9.98-8.75-4.09-6.02-4.87-12.17-5.56-17.58-.25-2.01-.5-3.9-.89-5.76-.38-1.81-.85-3.41-1.3-4.96-1.18-4.05-2.41-8.23-1.84-14.79.88-10.25,6.91-17.96,14.77-19.4-.19-1.5-.39-3-.58-4.47-.62-4.76-1.27-9.69-1.79-14.59-.12-1.17-.25-2.36-.38-3.57-1.36-12.52-2.91-26.71.78-39.08,3.11-10.43,8.47-19.56,14.15-28.77l8.98-14.55.1.46.28-.46,1.19,5.24c5.19-6.97,11.84-13.59,19.82-19.68l16.43-12.53-.1.37.49-.37-3.25,11.94c1.82-1.19,3.66-2.28,5.52-3.26l.11-.06c.82-.46,2.51-1.42,4.76-1.42h.54l8.25.38-.63,3.35c5.42-2.43,10.44-4.96,14.1-8.94.13-.16.32-.41.53-.7,2.72-3.6,4.37-5.77,8.06-5.77h2.77l3.24,2.49.72,1.52c.55,1.17,1.06,2.35,1.53,3.53l.63-.5c1.27-1.02,2.86-1.58,4.5-1.58h.38c3.55,0,5.83,2.5,7.19,3.99,1.45,1.58,2.82,3.36,4.09,5.27l6.43-4.16.16.15.23-.15c5.83,5.48,12.29,11.74,18.54,18.62h1.67c1.09-.01,2.73.24,4.38,1.46l.53.4.45.49c2.23,2.42,4.7,4.84,7.31,7.39,9.71,9.51,20.71,20.28,22.96,35.58,1.76,12.02.56,25.44-.6,38.43-.41,4.52-.79,8.79-1.03,12.83-.2,3.37-.32,6.85-.45,10.22,0,.17-.01.33-.02.5,7.92.81,9.63,2.13,11.15,12.56,1.02,6.96,2.7,22.84,1.42,27.16-.5,1.7.38-1.81,0,0-.34,1.63-.54,3.38-.75,5.22-.37,3.24-.8,6.91-2.09,10.63-2.47,7.1-7.26,12.62-13.48,15.7-.17,1.67-.34,3.38-.51,5.14-1.26,12.98-2.56,26.4-8.04,38.4-1.22,2.67-2.74,4.74-4.08,6.57-.84,1.15-1.63,2.23-2.08,3.12-.35.71-.75,1.89-1.14,3.02-.45,1.32-.92,2.68-1.52,4.03-11.82,26.56-37.21,41.8-69.65,41.8h-.38Z"/>
  <g>
    <path d="M643.89,66.38c1.73-.24,4.23.83,5.84.52,1.36-.26,7.4-3.69,8.95-4.61,9.78-5.84,17.4-13.92,20.35-25.19,2.07-7.9,1.91-16.64.31-24.62.35-.29,1.86,1.39,2.17,1.72,5.63,6.15,10.29,16.57,10.81,24.93.73,11.69-3.9,21.06-11.83,29.27,2.43-.64,5.77-.59,8.04-1.61.78-.35,2.76-1.93,3.49-2.56,10.65-9.21,8.72-22.87,5.39-35.09l-4.67-13.48c9.26,8.7,18.31,17.71,26.2,27.69.32.4.65.9.75,1.42.53.07.22-.58.16-.88-.44-2.25-1.42-4.67-2.04-6.89-.06-.2-.39-1.14.15-.73,10.69,11.61,26.05,22.62,28.49,39.24,2.24,15.27-.77,34.25-1.69,49.83-.39,6.67-.49,13.36-.86,20.03,8.99-5.76,14.86,2.06,16.1,10.56,1.13,7.75-1.54,11.83-3,18.84-1.04,4.99-.9,10.08-2.6,14.98-2.18,6.28-6.88,11.23-13.36,13.01-1.78,14.88-2.13,31.83-8.43,45.62-1.7,3.73-4.52,6.38-6.06,9.5-1.03,2.09-1.76,5.01-2.78,7.31-12.77,28.7-41.47,39.89-71.66,37.28-25.6-2.21-45.44-15.2-55.61-38.92-.75-1.75-1.22-4.13-2.05-5.73-.91-1.75-2.96-3.78-4.09-5.71-4.49-7.6-6.44-17.56-7.79-26.22-1.16-7.5-1.88-15.1-2.34-22.68-4.36-1.95-8.15-4.12-10.91-8.17-4.44-6.54-3.84-13.51-5.38-20.85-1.43-6.79-3.67-10.14-3.02-17.72.73-8.48,6.69-16.76,15.84-11.68-1-9.38-2.47-18.73-3.45-28.11-1.32-12.58-3.48-27.77.14-39.92,2.89-9.71,8.13-18.55,13.4-27.1l.3,1.31c-.42,3.18-.26,6.34-.56,9.54-.03.32-.26,1.04.25.97,4.16-16.01,15.81-29.09,28.68-38.91l-4.48,16.43c5.41-7.79,14.16-15.21,22.58-19.65.46-.24,1.13-.69,1.64-.67-.56,2.97-1.55,5.89-2.1,8.86-.04.23-.51.74.21.5,1.21-.4,3.29-1.9,4.66-2.55,8.68-4.15,18.09-7.09,24.75-14.45.36-.39,3.1-4.2,3.31-4.04,6.32,13.33,6.46,29.06-1.78,41.6-5.17,7.86-12.72,12.71-20.41,17.78ZM663.77,18.54l-7.59,5.24c-11.51,5.79-24.44,10.17-32.33,20.99-.35-4.04,1.38-8.12,1.44-12.1-9.37,8.04-16.51,19.1-18.59,31.42-.89-1.04-1.41-3.02-1.8-4.39-1.59-5.65-1.72-11.56-1.07-17.37-.03-.35-.31,0-.44.14-2.17,2.27-6.22,8.82-7.86,11.74-4.19,7.41-6.3,15.8-6.69,24.3l-1.39-1.63c-1.83-2.7-3.16-5.67-4.23-8.75-1.83,4.61-4.41,9.86-5.48,14.7-1.41,6.39-.03,16.44.16,23.2.07,2.54-.08,5.11,0,7.65l1.87-11.24c3.29-15.72,8.68-28.5,24.99-33.81,7.67-2.49,15.79-3.64,23.85-3.38.81-11.57,8.26-20.95,17.44-27.38.38.18.02.79-.09,1.07-2.03,5.15-5.65,10.4-7.89,15.74-1.46,3.49-2.6,7.1-3.7,10.71,0,.33.62.1.88.01,6.16-2.12,14.04-9.11,18.14-14.14,7.68-9.41,11.05-20.52,10.38-32.71ZM660.03,68.69c3.63.57,7.34,1.06,11.03.8,10.21-6.93,16.32-18.42,15.48-30.92-.1-1.44-.67-2.99-.58-4.47-.58.11-.47.61-.57,1.01-2.83,11.11-6.57,18.5-15.27,26.24-3.12,2.77-6.72,4.92-10.09,7.34ZM724.87,65.52c-3.91-11.06-11.65-20.19-19.6-28.54,1.83,9.77.52,21.22-6.34,28.82,5.91-.02,12.06.7,17.48,3.12,18.1,8.08,21.73,30.34,22.86,48.04l.57,2.74c.09-2.25-.11-4.53,0-6.78.54-11.99,2.3-25.55.55-37.43-1.34-9.1-7.73-15.64-13.37-22.37-.07,3.57-.42,7-1.38,10.44-.15.52-.33,1.69-.78,1.95ZM736.97,152c-.7-12.07-1.64-24.15-3.21-36.13-3.11-23.69-6.14-45.84-35.85-44.3-7.33.38-14.41,2.53-21.64,3.43-23.52,2.93-46.85-9.52-70.28-.83-23.91,8.88-21.27,40.15-22.63,60.96l.3,17.16,2.28-.32c4.81-19.78,24.11-22.8,41.58-19.49,2.26.43,4.74,1.47,6.99,1.66,17.5,1.48,37.06-1.14,54.77,0,19.48-5.28,40.26-5.06,47.07,17.19.14.47-.23.81.61.67ZM639.28,142.2c-.99-1.15-2.98-2.02-4.42-2.64-9.37-4.06-26-5.17-35.07-.1-2.56,1.43-5.15,3.75-6.33,6.49,4.41-5.09,11.15-7.07,17.72-7.49,9.42-.61,19.24.49,28.09,3.74ZM729.19,146.23c-2.77-7.06-12.57-9.38-19.45-9.8-9.29-.57-19.09.88-27.23,5.48-.05.54.94.28,1.22.22,4.79-1.02,8.76-2.58,13.91-3.1,10.1-1.02,24.37-1.03,31.55,7.2ZM678.76,138.16h-33c-.16,0-.77-.62-1.01-.15,3.3,2.1,5.84,4.82,8.25,7.88,5.7-2.36,12.23-2.48,17.68.63,1.1-2.53,3.12-4.46,5.06-6.34l3.02-2.02ZM736.4,168.14c-1.66,7.54-6.84,15.63-13.16,20.13-22.47,15.98-50.36-8.29-53.62-31.31-.18-1.29-.27-6.37-.63-6.86-4.31-3-10.61-2.99-14.95-.06.33,8.25-2.03,16.2-6.46,23.09-5.66,8.81-16.96,18.33-27.55,20.01-18.98,3.02-33.76-15.5-34.66-33.05l-1.13-.02c-.1,14.23.74,28.54,3.83,42.43,2.98,13.36,8.27,25.45,19.7,33.62.77.55,3.57,2.52,4.27,2.65.62.12.36-.12.43-.44.54-2.71.59-5.4,1.3-8.22,3.33-13.23,12.41-19.19,25.5-21.04-3.54,2.6-6.57,5.42-8.64,9.37-.06.2.3.21.43.14.18-.1,2.15-2.51,2.74-3.03,3.68-3.27,9.87-6.72,14.85-7.05s7.7,3.28,12.1,3.19c3.84-.08,7.58-3.44,10.95-3.5,1.32-.03,3.95.67,5.27,1.09,5.18,1.66,9.77,5.45,13.46,9.3.35-.39-.29-1.16-.49-1.53-1.2-2.16-3.28-4.47-5.12-6.12-.7-.63-1.71-1.15-2.31-1.87,7.59,1.4,15.49,4.36,20.12,10.86,3.77,5.29,5.77,12.37,5.82,18.83.41.08.71-.07,1.07-.23,3.1-1.31,8.77-6.52,11.02-9.15,12.62-14.72,15.16-40.39,16.16-59.07.02-.47.21-1.98-.3-2.17ZM578.76,160.94v-7.06c-3.45-3.87-8.71-8.5-11.46-1.09-3.14,8.46.68,13.55,2.16,21.35,1.58,8.34.42,18.03,9.74,22.25.13-4.26,0-8.56-.13-12.84-.15-5.12.24-11.24-1.69-15.89-1.63-3.94-4.26-6.85-6.45-10.41l-1.39-.06.29-3.17c4.19.05,6.58,4.04,8.93,6.92ZM742.44,153.87v7.93l4.76-6.05c1.28-1.04,2.57-1.64,4.17-2.03l.59,3.3c-1.51.05-1.2.78-1.91,1.87-2.88,4.45-7.6,9.41-7.91,14.85s-.14,11.23-.27,16.74c-.04,1.84-.69,3.97-.16,5.9,9.33-4.24,8.16-13.9,9.74-22.25,1.42-7.53,5.28-13.1,2.36-21.27-2.64-7.39-7.81-2.44-11.38,1ZM726.31,248.57c.61-.45,1-1.6,1.29-2.31,2.29-5.71,2.69-12.73.29-18.44.24,6.91-.15,13.97-1.58,20.75ZM594.32,248.57c-1.31-6.37-.9-12.76-1.15-19.17-.01-.35.22-1.07-.28-1-1.52,5.03-2.05,10.08-.66,15.21l2.1,4.96ZM637.26,236.75h46.68c-.27.43-1.08.95-1.53,1.21-3.52,2.08-7.55,2.78-11.44,3.84,4.41,8.95,11.72,16.62,13.69,26.66.88-7.57-1.79-14.83-4.75-21.62,4.25,1.68,7.22,5.53,9.56,9.32l3.4,7.4c1.86-4.3,3.73-8.89,3.46-13.69-.17-3-2.98-13.73-5.19-15.56-1.89-1.57-8.87-3.11-11.46-3.53-10.81-1.74-33.49-1.81-43.92,1.15-1.33.38-4.83,1.49-5.81,2.26-2.13,1.7-4.93,12.75-5.09,15.66-.28,4.93,1.42,9.35,3.47,13.7l3.02-6.92c2.47-4.14,5.44-8.03,9.95-10.08-2.61,6.77-5.19,13.17-4.9,20.61.01.35-.22,1.07.29,1,1.83-9.97,9.07-17.6,13.55-26.37-4.36-1.15-9.5-2.08-12.97-5.05ZM603.83,259.81c-.85-2.76-1.44-5.62-1.72-8.51-.44-4.44.17-8.49,0-12.69-.01-.35.22-1.07-.28-1-2.82,7.1-3.21,16.11,2.01,22.19ZM717.09,259.81c1.31-.82,2.18-2.63,2.73-4.04,2.22-5.71,1.53-12.29-.72-17.86-.54-.06-.23.6-.2.92.67,7.01,0,14.18-1.81,20.98ZM700.66,282.87c9.09-6.14,10.78-17.26,6.91-27.09l-.91,8.17c-.77,4.38-1.62,8.78-3.19,12.95-.79,2.08-1.85,3.99-2.81,5.98ZM613.92,256.06c-.82-.15-.47.2-.65.63-1.74,4.34-2.33,10.08-1.23,14.65,1.11,4.59,4.7,9.13,8.5,11.82l-3.1-6.27c-2.11-6.72-3.7-13.74-3.53-20.83ZM668.68,292.38c8.5-8.81,6.53-21.99.72-31.71-.19-.31-.29-.79-.72-.86,2.33,10.69,2.8,21.93,0,32.57ZM652.82,292.96c-2.5-10.86-2.77-22.02,0-32.86-1.04,1.19-1.89,3.04-2.55,4.51-4.17,9.3-5.28,20.63,2.55,28.35ZM658.88,294.98c.47.45,2.99-2.7,3.29-3.19,3.61-5.8,2.77-13.08.74-19.29l-2.44,17.87-1.59,4.61ZM644.75,294.41c-5.34-2.43-9.2-7.42-11.17-12.9l-1.79-6.41c-2.95,9.99,1.03,16.68,10.89,19.23.43.11,1.92.74,2.08.09ZM676.74,294.69c4.86-.92,10.49-3.61,12.39-8.5,1.44-3.68.84-7.09,0-10.81-.4-.07-.42.51-.49.8-1.58,6.59-2.62,10.99-8,15.64l-3.9,2.87ZM644.27,66.38c1.73-.24,4.23.83,5.84.52,1.36-.26,7.4-3.69,8.95-4.61,9.78-5.84,17.4-13.92,20.35-25.19,2.07-7.9,1.91-16.64.31-24.62.35-.29,1.86,1.39,2.17,1.72,5.63,6.15,10.29,16.57,10.81,24.93.73,11.69-3.9,21.06-11.83,29.27,2.43-.64,5.77-.59,8.04-1.61.78-.35,2.76-1.93,3.49-2.56,10.65-9.21,8.72-22.87,5.39-35.09l-4.67-13.48c9.26,8.7,18.31,17.71,26.2,27.69.32.4.65.9.75,1.42.53.07.22-.58.16-.88-.44-2.25-1.42-4.67-2.04-6.89-.06-.2-.39-1.14.15-.73,10.69,11.61,26.05,22.62,28.49,39.24,2.24,15.27-.77,34.25-1.69,49.83-.39,6.67-.49,13.36-.86,20.03,8.99-5.76,14.86,2.06,16.1,10.56,1.13,7.75-1.54,11.83-3,18.84-1.04,4.99-.9,10.08-2.6,14.98-2.18,6.28-6.88,11.23-13.36,13.01-1.78,14.88-2.13,31.83-8.43,45.62-1.7,3.73-4.52,6.38-6.06,9.5-1.03,2.09-1.76,5.01-2.78,7.31-12.77,28.7-41.47,39.89-71.66,37.28-25.6-2.21-45.44-15.2-55.61-38.92-.75-1.75-1.22-4.13-2.05-5.73-.91-1.75-2.96-3.78-4.09-5.71-4.49-7.6-6.44-17.56-7.79-26.22-1.16-7.5-1.88-15.1-2.34-22.68-4.36-1.95-8.15-4.12-10.91-8.17-4.44-6.54-3.84-13.51-5.38-20.85-1.43-6.79-3.67-10.14-3.02-17.72.73-8.48,6.69-16.76,15.84-11.68-1-9.38-2.47-18.73-3.45-28.11-1.32-12.58-3.48-27.77.14-39.92,2.89-9.71,8.13-18.55,13.4-27.1l.3,1.31c-.42,3.18-.26,6.34-.56,9.54-.03.32-.26,1.04.25.97,4.16-16.01,15.81-29.09,28.68-38.91l-4.48,16.43c5.41-7.79,14.16-15.21,22.58-19.65.46-.24,1.13-.69,1.64-.67-.56,2.97-1.55,5.89-2.1,8.86-.04.23-.51.74.21.5,1.21-.4,3.29-1.9,4.66-2.55,8.68-4.15,18.09-7.09,24.75-14.45.36-.39,3.1-4.2,3.31-4.04,6.32,13.33,6.46,29.06-1.78,41.6-5.17,7.86-12.72,12.71-20.41,17.78Z"/>
    <path class="cls-1" d="M736.97,152c-.84.14-.47-.2-.61-.67-6.81-22.25-27.59-22.47-47.07-17.19-17.72-1.14-37.27,1.48-54.77,0-2.25-.19-4.73-1.23-6.99-1.66-17.48-3.31-36.77-.29-41.58,19.49l-2.28.32-.3-17.16c1.36-20.81-1.29-52.09,22.63-60.96,23.42-8.69,46.76,3.75,70.28.83,7.23-.9,14.32-3.05,21.64-3.43,29.71-1.54,32.74,20.61,35.85,44.3,1.57,11.99,2.51,24.06,3.21,36.13Z"/>
    <path class="cls-1" d="M736.4,168.14c.51.2.32,1.71.3,2.17-1,18.68-3.54,44.35-16.16,59.07-2.26,2.63-7.92,7.84-11.02,9.15-.36.15-.66.3-1.07.23-.05-6.46-2.05-13.53-5.82-18.83-4.62-6.5-12.52-9.46-20.12-10.86.6.72,1.61,1.24,2.31,1.87,1.84,1.65,3.92,3.95,5.12,6.12.2.37.85,1.13.49,1.53-3.7-3.86-8.29-7.64-13.46-9.3-1.31-.42-3.95-1.12-5.27-1.09-3.37.07-7.12,3.42-10.95,3.5-4.4.09-7.32-3.51-12.1-3.19s-11.17,3.78-14.85,7.05c-.59.52-2.56,2.93-2.74,3.03-.13.07-.49.06-.43-.14,2.08-3.95,5.1-6.76,8.64-9.37-13.1,1.85-22.17,7.81-25.5,21.04-.71,2.82-.76,5.5-1.3,8.22-.06.32.2.56-.43.44-.7-.13-3.49-2.1-4.27-2.65-11.43-8.17-16.72-20.26-19.7-33.62-3.1-13.89-3.94-28.2-3.83-42.43l1.13.02c.9,17.55,15.68,36.07,34.66,33.05,10.59-1.68,21.89-11.2,27.55-20.01,4.42-6.89,6.79-14.84,6.46-23.09,4.34-2.93,10.63-2.94,14.95.06.36.49.45,5.57.63,6.86,3.25,23.02,31.15,47.29,53.62,31.31,6.32-4.5,11.5-12.59,13.16-20.13ZM667.81,169.01c-.71-.09-.46,0-.6.4-1.49,4.05-1.39,17.83,1.89,20.94.32.31.96.89,1.41.81.81-.43,1.19-1.26,1.31-2.14,1-7.07-2.53-13.34-4.01-20.01ZM643.02,207.06c-3.21-1.54-3.77-5.51-3.42-8.76l1.55-5.65c-6.81,3.11-8.56,15.26,1.16,14.7.32-.02.79.19.71-.28ZM679.91,207.35c9.61.11,6.91-11.35.43-14.12l1.4,4.66c.4,1.62.41,3.53.06,5.16s-1.37,2.8-1.89,4.31ZM672.65,199.91c-2.79.28-4.75,2.71-7.24,3.74-8.31,3.43-11.6-4.01-17.61-3.2-3.67.5-3.82,4.34,0,4.85.99.13,2.15-.15,3.07.09.72.19,2.42,1.71,3.3,2.18,4,2.18,7.85,2.42,12.1.69,1.49-.61,3.69-2.49,4.69-2.81s2.19-.02,3.26-.2c4.71-.78,2.3-5.73-1.58-5.35Z"/>
    <path class="cls-1" d="M663.77,18.54c.67,12.19-2.7,23.3-10.38,32.71-4.1,5.03-11.98,12.02-18.14,14.14-.25.09-.88.32-.88-.01,1.1-3.62,2.24-7.23,3.7-10.71,2.24-5.34,5.86-10.6,7.89-15.74.11-.28.46-.88.09-1.07-9.17,6.43-16.63,15.81-17.44,27.38-8.07-.26-16.19.88-23.85,3.38-16.31,5.31-21.7,18.08-24.99,33.81l-1.87,11.24c-.07-2.54.08-5.1,0-7.65-.19-6.75-1.57-16.81-.16-23.2,1.07-4.84,3.64-10.09,5.48-14.7,1.06,3.08,2.39,6.04,4.23,8.75l1.39,1.63c.39-8.5,2.5-16.89,6.69-24.3,1.65-2.91,5.69-9.46,7.86-11.74.13-.14.41-.49.44-.14-.65,5.81-.52,11.72,1.07,17.37.39,1.37.92,3.35,1.8,4.39,2.08-12.32,9.22-23.38,18.59-31.42-.07,3.98-1.79,8.07-1.44,12.1,7.89-10.83,20.82-15.2,32.33-20.99l7.59-5.24Z"/>
    <path class="cls-1" d="M637.26,236.75c3.47,2.97,8.61,3.89,12.97,5.05-4.48,8.77-11.72,16.4-13.55,26.37-.5.07-.27-.65-.29-1-.29-7.45,2.28-13.85,4.9-20.61-4.51,2.05-7.48,5.94-9.95,10.08l-3.02,6.92c-2.06-4.35-3.75-8.78-3.47-13.7.16-2.91,2.96-13.96,5.09-15.66.97-.78,4.47-1.88,5.81-2.26,10.44-2.96,33.12-2.89,43.92-1.15,2.59.42,9.56,1.96,11.46,3.53,2.21,1.83,5.02,12.56,5.19,15.56.27,4.8-1.6,9.39-3.46,13.69l-3.4-7.4c-2.34-3.79-5.3-7.64-9.56-9.32,2.96,6.79,5.64,14.05,4.75,21.62-1.97-10.04-9.28-17.72-13.69-26.66,3.89-1.06,7.93-1.76,11.44-3.84.45-.26,1.26-.78,1.53-1.21h-46.68Z"/>
    <path class="cls-1" d="M724.87,65.52c.45-.26.63-1.43.78-1.95.95-3.44,1.31-6.87,1.38-10.44,5.64,6.74,12.03,13.27,13.37,22.37,1.74,11.88-.02,25.43-.55,37.43-.1,2.25.1,4.53,0,6.78l-.57-2.74c-1.14-17.7-4.76-39.96-22.86-48.04-5.42-2.42-11.58-3.14-17.48-3.12,6.86-7.6,8.17-19.05,6.34-28.82,7.94,8.35,15.69,17.48,19.6,28.54Z"/>
    <path class="cls-1" d="M578.76,160.94c-2.36-2.88-4.75-6.87-8.93-6.92l-.29,3.17,1.39.06c2.19,3.56,4.82,6.47,6.45,10.41,1.93,4.65,1.54,10.78,1.69,15.89.13,4.28.27,8.58.13,12.84-9.32-4.22-8.16-13.91-9.74-22.25-1.48-7.8-5.3-12.89-2.16-21.35,2.75-7.41,8.02-2.79,11.46,1.09v7.06Z"/>
    <path class="cls-1" d="M742.44,153.87c3.57-3.44,8.73-8.4,11.38-1,2.92,8.16-.93,13.73-2.36,21.27-1.58,8.35-.41,18.01-9.74,22.25-.54-1.92.11-4.06.16-5.9.13-5.51-.04-11.27.27-16.74s5.03-10.4,7.91-14.85c.7-1.08.39-1.82,1.91-1.87l-.59-3.3c-1.59.39-2.89.99-4.17,2.03l-4.76,6.05v-7.93Z"/>
    <path class="cls-1" d="M660.03,68.69c3.37-2.43,6.97-4.57,10.09-7.34,8.7-7.73,12.44-15.12,15.27-26.24.1-.4,0-.9.57-1.01-.1,1.48.48,3.03.58,4.47.83,12.5-5.28,23.99-15.48,30.92-3.69.26-7.39-.23-11.03-.8Z"/>
    <path class="cls-1" d="M678.76,138.16l-3.02,2.02c-1.94,1.87-3.95,3.81-5.06,6.34-5.45-3.11-11.98-2.99-17.68-.63-2.41-3.05-4.94-5.78-8.25-7.88.23-.48.85.15,1.01.15h33Z"/>
    <path class="cls-1" d="M652.82,292.96c-7.83-7.72-6.72-19.05-2.55-28.35.66-1.47,1.51-3.32,2.55-4.51-2.77,10.84-2.5,22,0,32.86Z"/>
    <path class="cls-1" d="M729.19,146.23c-7.17-8.23-21.45-8.22-31.55-7.2-5.14.52-9.12,2.08-13.91,3.1-.29.06-1.28.32-1.22-.22,8.13-4.6,17.93-6.05,27.23-5.48,6.88.42,16.68,2.74,19.45,9.8Z"/>
    <path class="cls-1" d="M668.68,292.38c2.8-10.64,2.33-21.89,0-32.57.43.07.54.54.72.86,5.8,9.72,7.77,22.91-.72,31.71Z"/>
    <path class="cls-1" d="M639.28,142.2c-8.85-3.25-18.67-4.35-28.09-3.74-6.57.43-13.31,2.4-17.72,7.49,1.19-2.74,3.77-5.06,6.33-6.49,9.07-5.07,25.7-3.96,35.07.1,1.43.62,3.43,1.49,4.42,2.64Z"/>
    <path class="cls-1" d="M613.92,256.06c-.17,7.09,1.42,14.11,3.53,20.83l3.1,6.27c-3.8-2.69-7.39-7.23-8.5-11.82-1.1-4.57-.52-10.3,1.23-14.65.17-.44-.17-.78.65-.63Z"/>
    <path class="cls-1" d="M700.66,282.87c.95-1.99,2.02-3.91,2.81-5.98,1.58-4.16,2.42-8.57,3.19-12.95l.91-8.17c3.87,9.84,2.18,20.95-6.91,27.09Z"/>
    <path class="cls-1" d="M644.75,294.41c-.15.65-1.65.02-2.08-.09-9.86-2.55-13.84-9.23-10.89-19.23l1.79,6.41c1.96,5.48,5.83,10.47,11.17,12.9Z"/>
    <path class="cls-1" d="M676.74,294.69l3.9-2.87c5.38-4.65,6.42-9.05,8-15.64.07-.29.09-.87.49-.8.85,3.73,1.44,7.14,0,10.81-1.91,4.89-7.53,7.58-12.39,8.5Z"/>
    <path class="cls-1" d="M658.88,294.98l1.59-4.61,2.44-17.87c2.03,6.2,2.87,13.49-.74,19.29-.3.49-2.82,3.64-3.29,3.19Z"/>
    <path class="cls-1" d="M717.09,259.81c1.8-6.8,2.47-13.98,1.81-20.98-.03-.32-.34-.98.2-.92,2.25,5.58,2.94,12.15.72,17.86-.55,1.41-1.42,3.22-2.73,4.04Z"/>
    <path class="cls-1" d="M603.83,259.81c-5.22-6.08-4.83-15.1-2.01-22.19.5-.07.27.65.28,1,.17,4.2-.44,8.25,0,12.69.29,2.88.87,5.75,1.72,8.51Z"/>
    <path class="cls-1" d="M594.32,248.57l-2.1-4.96c-1.39-5.13-.86-10.18.66-15.21.5-.07.27.65.28,1,.25,6.42-.16,12.8,1.15,19.17Z"/>
    <path class="cls-1" d="M726.31,248.57c1.43-6.78,1.82-13.84,1.58-20.75,2.4,5.71,2,12.73-.29,18.44-.28.71-.68,1.86-1.29,2.31Z"/>
    <path d="M672.65,199.91c3.88-.39,6.29,4.57,1.58,5.35-1.07.18-2.27-.12-3.26.2s-3.19,2.2-4.69,2.81c-4.25,1.74-8.1,1.49-12.1-.69-.87-.47-2.57-1.99-3.3-2.18-.93-.25-2.08.04-3.07-.09-3.82-.51-3.67-4.35,0-4.85,6-.81,9.29,6.62,17.61,3.2,2.49-1.02,4.44-3.46,7.24-3.74Z"/>
    <path d="M667.81,169.01c1.48,6.67,5.01,12.94,4.01,20.01-.12.88-.5,1.71-1.31,2.14-.45.08-1.09-.5-1.41-.81-3.28-3.11-3.38-16.9-1.89-20.94.15-.4-.1-.49.6-.4Z"/>
    <path d="M643.02,207.06c.08.47-.39.27-.71.28-9.72.56-7.96-11.58-1.16-14.7l-1.55,5.65c-.35,3.25.21,7.22,3.42,8.76Z"/>
    <path d="M679.91,207.35c.52-1.51,1.53-2.68,1.89-4.31s.34-3.54-.06-5.16l-1.4-4.66c6.49,2.77,9.18,14.24-.43,14.12Z"/>
  </g>
  <text class="cls-3" transform="translate(7.64 265.08)"><tspan x="0" y="0">BOBCORP</tspan></text>
  <text class="cls-2" transform="translate(17.82 106.75) scale(.92 1)"><tspan x="0" y="0">A PRODUCT OF</tspan></text>
</svg>